PathFileType	4	(X/Y/Z)	 2.5Hzhigh3min.trc
DataRate	CameraRate	NumFrames	NumMarkers	Units	OrigDataRate	OrigDataStartFrame	OrigNumFrames
200	200	8	43	m	200	876	1000
Frame#	Time	C7			LSH			RSH			MAN			RASI			LASI			HIPR			HIPL			RPSI			LPSI			COX			RTHI1			RTHI2			RTHI3			RTHI4			RLKN			RMKN			RSHA1			RSHA2			RSHA3			RSHA4			RLMAL			RMMAL			RHEEL			RMET5			RMET1			RTOE			LTHI1			LTHI2			LTHI3			LTHI4			LLKN			LMKN			LSHA1			LSHA2			LSHA3			LSHA4			LLMAL			LMMAL			LHEEL			LMET5			LMET1			LTOE			
		X1	Y1	Z1	X2	Y2	Z2	X3	Y3	Z3	X4	Y4	Z4	X5	Y5	Z5	X6	Y6	Z6	X7	Y7	Z7	X8	Y8	Z8	X9	Y9	Z9	X10	Y10	Z10	X11	Y11	Z11	X12	Y12	Z12	X13	Y13	Z13	X14	Y14	Z14	X15	Y15	Z15	X16	Y16	Z16	X17	Y17	Z17	X18	Y18	Z18	X19	Y19	Z19	X20	Y20	Z20	X21	Y21	Z21	X22	Y22	Z22	X23	Y23	Z23	X24	Y24	Z24	X25	Y25	Z25	X26	Y26	Z26	X27	Y27	Z27	X28	Y28	Z28	X29	Y29	Z29	X30	Y30	Z30	X31	Y31	Z31	X32	Y32	Z32	X33	Y33	Z33	X34	Y34	Z34	X35	Y35	Z35	X36	Y36	Z36	X37	Y37	Z37	X38	Y38	Z38	X39	Y39	Z39	X40	Y40	Z40	X41	Y41	Z41	X42	Y42	Z42	X43	Y43	Z43	
876	4.3800	-0.327094	1.508285	-0.498794	-0.320929	1.517879	-0.672994	-0.252954	1.497200	-0.330472	-0.204544	1.447591	-0.515121	-0.199716	1.026230	-0.407690	-0.205581	1.021331	-0.624269	-0.247298	1.079502	-0.375400	-0.279312	1.070096	-0.652743	-0.350130	1.059579	-0.454118	-0.353105	1.058028	-0.557042	-0.352514	1.053707	-0.502655	-0.280874	0.827071	-0.324037	-0.269755	0.768979	-0.316381	-0.206572	0.777023	-0.330701	-0.210740	0.837580	-0.341390	-0.264225	0.509598	-0.327978	-0.263958	0.497154	-0.428991	-0.366321	0.317690	-0.317785	-0.380877	0.278220	-0.327115	-0.321226	0.264019	-0.329699	-0.311194	0.302644	-0.325093	-0.388692	0.152921	-0.333554	-0.358161	0.165444	-0.408119	-0.431753	0.166320	-0.382439	-0.318113	0.043815	-0.314282	-0.277506	0.046209	-0.385818	-0.258316	0.037411	-0.382923	-0.325969	0.819296	-0.692614	-0.314176	0.759294	-0.701921	-0.250111	0.767250	-0.707537	-0.253212	0.826790	-0.698962	-0.289042	0.514220	-0.697187	-0.286102	0.509103	-0.593904	-0.396046	0.301862	-0.710828	-0.407234	0.263179	-0.703914	-0.346751	0.252087	-0.696941	-0.342669	0.295356	-0.705183	-0.405457	0.158304	-0.705519	-0.390195	0.168517	-0.629530	-0.459898	0.158360	-0.660655	-0.338894	0.046082	-0.706417	-0.305134	0.047366	-0.630300	-0.284775	0.039080	-0.629686	
877	4.3850	-0.327077	1.513567	-0.498608	-0.320974	1.523843	-0.672324	-0.253108	1.502923	-0.330653	-0.204527	1.453759	-0.514998	-0.198608	1.031624	-0.408149	-0.204713	1.026800	-0.624365	-0.245569	1.086109	-0.375991	-0.278082	1.076455	-0.652683	-0.348699	1.065816	-0.454066	-0.351796	1.064266	-0.557037	-0.351188	1.059875	-0.502642	-0.280939	0.832570	-0.324050	-0.270353	0.774357	-0.316428	-0.207140	0.781796	-0.330900	-0.210740	0.842396	-0.341563	-0.267286	0.515286	-0.328472	-0.266074	0.502309	-0.429584	-0.366006	0.322148	-0.317958	-0.379833	0.282191	-0.327290	-0.319947	0.269046	-0.328940	-0.310678	0.307908	-0.324606	-0.385312	0.156523	-0.332836	-0.353741	0.168925	-0.406911	-0.427595	0.170520	-0.382330	-0.316884	0.045597	-0.314138	-0.276580	0.046891	-0.385452	-0.257832	0.037714	-0.381975	-0.326046	0.825364	-0.692486	-0.314781	0.765268	-0.701794	-0.250644	0.772658	-0.707372	-0.253229	0.832222	-0.698792	-0.291921	0.519795	-0.696406	-0.287777	0.514497	-0.593069	-0.395415	0.305947	-0.709811	-0.405730	0.267021	-0.703194	-0.344931	0.257028	-0.697337	-0.341814	0.300458	-0.705168	-0.401980	0.161804	-0.705410	-0.385431	0.171799	-0.629827	-0.455339	0.162845	-0.659413	-0.338027	0.046924	-0.705705	-0.303892	0.047939	-0.630229	-0.283954	0.039254	-0.629936	
878	4.3900	-0.327021	1.518645	-0.498410	-0.321012	1.529521	-0.671678	-0.253234	1.508382	-0.330807	-0.204481	1.459647	-0.514874	-0.197568	1.036792	-0.408598	-0.203899	1.032076	-0.624450	-0.243850	1.092419	-0.376580	-0.276890	1.082632	-0.652602	-0.347349	1.071811	-0.454020	-0.350568	1.070277	-0.557018	-0.349942	1.065824	-0.502628	-0.281036	0.837854	-0.324049	-0.270965	0.779548	-0.316462	-0.207719	0.786387	-0.331052	-0.210772	0.847037	-0.341672	-0.270203	0.520725	-0.328995	-0.268101	0.507286	-0.430211	-0.365694	0.326422	-0.318225	-0.378843	0.286055	-0.327524	-0.318742	0.273913	-0.328296	-0.310203	0.312974	-0.324215	-0.382029	0.160174	-0.332184	-0.349535	0.172454	-0.405832	-0.423620	0.174686	-0.382272	-0.315576	0.047905	-0.313826	-0.275382	0.047887	-0.384955	-0.257096	0.038177	-0.380948	-0.326174	0.831187	-0.692333	-0.315418	0.771007	-0.701674	-0.251227	0.777851	-0.707268	-0.253316	0.837442	-0.698672	-0.294727	0.525154	-0.695634	-0.289407	0.519624	-0.592252	-0.394725	0.309841	-0.708874	-0.404175	0.270708	-0.702548	-0.343101	0.261817	-0.697719	-0.340928	0.305381	-0.705160	-0.398461	0.165285	-0.705380	-0.380718	0.175135	-0.630162	-0.450802	0.167305	-0.658396	-0.337033	0.048021	-0.705040	-0.302445	0.048762	-0.630252	-0.282919	0.039484	-0.630194	
879	4.3950	-0.326923	1.523502	-0.498202	-0.321041	1.534889	-0.671072	-0.253326	1.513557	-0.330927	-0.204402	1.465225	-0.514747	-0.196608	1.041712	-0.409028	-0.203139	1.037141	-0.624524	-0.242177	1.098380	-0.377155	-0.275748	1.088585	-0.652520	-0.346091	1.077543	-0.453987	-0.349432	1.076030	-0.557004	-0.348787	1.071532	-0.502625	-0.281179	0.842902	-0.324040	-0.271612	0.784516	-0.316491	-0.208321	0.790788	-0.331163	-0.210847	0.851487	-0.341724	-0.272936	0.525890	-0.329543	-0.270013	0.512064	-0.430872	-0.365409	0.330492	-0.318591	-0.377945	0.289785	-0.327829	-0.317658	0.278579	-0.327804	-0.309787	0.317808	-0.323947	-0.379037	0.163859	-0.331668	-0.345730	0.176012	-0.404961	-0.420027	0.178744	-0.382291	-0.314184	0.050702	-0.313322	-0.273896	0.049287	-0.384316	-0.256056	0.038872	-0.379739	-0.326360	0.836713	-0.692150	-0.316090	0.776462	-0.701548	-0.251861	0.782795	-0.707224	-0.253487	0.842424	-0.698603	-0.297376	0.530263	-0.694866	-0.291008	0.524463	-0.591439	-0.393965	0.313573	-0.708037	-0.402604	0.274244	-0.701979	-0.341302	0.266418	-0.698029	-0.340022	0.310091	-0.705122	-0.394985	0.168766	-0.705382	-0.376234	0.178532	-0.630487	-0.446455	0.171702	-0.657645	-0.335817	0.049525	-0.704468	-0.300769	0.049966	-0.630397	-0.281640	0.039784	-0.630432	
880	4.4000	-0.326785	1.528125	-0.497985	-0.321064	1.539920	-0.670515	-0.253377	1.518431	-0.331010	-0.204280	1.470468	-0.514613	-0.195720	1.046374	-0.409439	-0.202438	1.041968	-0.624580	-0.240581	1.103944	-0.377703	-0.274662	1.094265	-0.652440	-0.344938	1.082994	-0.453965	-0.348397	1.081510	-0.557006	-0.347725	1.076992	-0.502640	-0.281374	0.847709	-0.324033	-0.272267	0.789274	-0.316536	-0.208940	0.795008	-0.331250	-0.210972	0.855753	-0.341731	-0.275405	0.530754	-0.330129	-0.271776	0.516642	-0.431571	-0.365184	0.334330	-0.319040	-0.377190	0.293393	-0.328197	-0.316730	0.283014	-0.327499	-0.309454	0.322379	-0.323811	-0.376427	0.167547	-0.331324	-0.342498	0.179570	-0.404350	-0.416988	0.182602	-0.382407	-0.312697	0.054014	-0.312646	-0.272173	0.051207	-0.383491	-0.254706	0.040081	-0.378393	-0.326612	0.841896	-0.691934	-0.316794	0.781589	-0.701402	-0.252540	0.787455	-0.707230	-0.253746	0.847127	-0.698590	-0.299795	0.535088	-0.694099	-0.292557	0.529022	-0.590619	-0.393151	0.317144	-0.707294	-0.401060	0.277657	-0.701474	-0.339574	0.270807	-0.698198	-0.339099	0.314561	-0.705002	-0.391651	0.172263	-0.705361	-0.372157	0.181988	-0.630732	-0.442464	0.175971	-0.657165	-0.334355	0.051510	-0.703932	-0.298862	0.051541	-0.630609	-0.280091	0.040209	-0.630666	
881	4.4050	-0.326605	1.532499	-0.497765	-0.321088	1.544606	-0.670017	-0.253383	1.522994	-0.331052	-0.204113	1.475365	-0.514476	-0.194918	1.050768	-0.409818	-0.201798	1.046537	-0.624627	-0.239099	1.109084	-0.378200	-0.273643	1.099628	-0.652377	-0.343899	1.088152	-0.453965	-0.347455	1.086697	-0.557032	-0.346756	1.082200	-0.502677	-0.281628	0.852272	-0.324037	-0.272961	0.793762	-0.316609	-0.209575	0.799042	-0.331331	-0.211171	0.859823	-0.341717	-0.277541	0.535306	-0.330760	-0.273341	0.521003	-0.432293	-0.365063	0.337942	-0.319606	-0.376618	0.296895	-0.328595	-0.315988	0.287212	-0.327398	-0.309219	0.326680	-0.323834	-0.374307	0.171204	-0.331198	-0.339914	0.183095	-0.404020	-0.414559	0.186194	-0.382673	-0.311115	0.057769	-0.311852	-0.270279	0.053747	-0.382477	-0.253067	0.042065	-0.376839	-0.326933	0.846708	-0.691689	-0.317526	0.786356	-0.701226	-0.253260	0.791813	-0.707276	-0.254095	0.851529	-0.698633	-0.301888	0.539620	-0.693328	-0.294018	0.533306	-0.589786	-0.392283	0.320576	-0.706640	-0.399578	0.280979	-0.701009	-0.337967	0.274968	-0.698168	-0.338164	0.318783	-0.704762	-0.388551	0.175765	-0.705255	-0.368656	0.185486	-0.630826	-0.438963	0.180032	-0.656912	-0.332603	0.054010	-0.703463	-0.296774	0.053419	-0.630813	-0.278333	0.040804	-0.631006	
882	4.4100	-0.326390	1.536616	-0.497548	-0.321115	1.548945	-0.669579	-0.253344	1.527237	-0.331050	-0.203902	1.479912	-0.514342	-0.194202	1.054888	-0.410161	-0.201222	1.050827	-0.624667	-0.237752	1.113783	-0.378635	-0.272702	1.104632	-0.652333	-0.342947	1.092967	-0.454001	-0.346613	1.091584	-0.557088	-0.345868	1.087190	-0.502736	-0.281944	0.856579	-0.324066	-0.273675	0.798040	-0.316743	-0.210224	0.802896	-0.331431	-0.211443	0.863713	-0.341702	-0.279295	0.539555	-0.331439	-0.274656	0.525147	-0.433025	-0.365053	0.341365	-0.320284	-0.376216	0.300300	-0.329061	-0.315452	0.291170	-0.327502	-0.309087	0.330725	-0.324032	-0.372727	0.174788	-0.331306	-0.337985	0.186543	-0.403971	-0.412710	0.189465	-0.383127	-0.309508	0.061844	-0.310956	-0.268222	0.056980	-0.381141	-0.251170	0.044971	-0.374997	-0.327318	0.851145	-0.691426	-0.318274	0.790745	-0.701011	-0.254010	0.795851	-0.707346	-0.254533	0.855620	-0.698728	-0.303562	0.543849	-0.692552	-0.295311	0.537341	-0.588951	-0.391377	0.323911	-0.706057	-0.398188	0.284230	-0.700568	-0.336497	0.278906	-0.697906	-0.337229	0.322753	-0.704367	-0.385775	0.179253	-0.705021	-0.365831	0.188970	-0.630722	-0.436053	0.183829	-0.656808	-0.330563	0.056993	-0.703027	-0.294580	0.055605	-0.631052	-0.276425	0.041651	-0.631578	
883	4.4150	-0.326143	1.540476	-0.497338	-0.321146	1.552937	-0.669213	-0.253254	1.531163	-0.331003	-0.203640	1.484120	-0.514207	-0.193574	1.058737	-0.410464	-0.200713	1.054817	-0.624703	-0.236587	1.118044	-0.378981	-0.271850	1.109243	-0.652350	-0.342106	1.097480	-0.454065	-0.345867	1.096159	-0.557185	-0.345062	1.091949	-0.502821	-0.282311	0.860626	-0.324132	-0.274395	0.802041	-0.316948	-0.210874	0.806572	-0.331568	-0.211790	0.867420	-0.341707	-0.280660	0.543521	-0.332155	-0.275687	0.529072	-0.433750	-0.365141	0.344637	-0.321058	-0.375990	0.303607	-0.329600	-0.315116	0.294900	-0.327798	-0.309052	0.334528	-0.324402	-0.371642	0.178266	-0.331633	-0.336611	0.189880	-0.404166	-0.411397	0.192426	-0.383789	-0.307948	0.066134	-0.310011	-0.266045	0.060730	-0.379502	-0.249055	0.048648	-0.372861	-0.327756	0.855206	-0.691165	-0.319025	0.794757	-0.700749	-0.254772	0.799584	-0.707422	-0.255048	0.859407	-0.698861	-0.304760	0.547777	-0.691768	-0.296382	0.541145	-0.588119	-0.390446	0.327161	-0.705525	-0.396921	0.287402	-0.700120	-0.335185	0.282610	-0.697398	-0.336311	0.326475	-0.703799	-0.383385	0.182682	-0.704630	-0.363702	0.192376	-0.630393	-0.433776	0.187324	-0.656751	-0.328314	0.060374	-0.702650	-0.292367	0.058069	-0.631314	-0.274461	0.042866	-0.632431	
